 http://www.shotpix.com/images/87409419542830084697.jpg



 
http://www.imdb.com/title/tt1748227/



Plot:A man who escapes from the vicious grips of the serial killer known as "The Collector" is blackmailed to rescue an innocent girl from the killer's booby-trapped warehouse.
 


Director: 
Marcus Dunstan

 Writers: 
Patrick Melton, Marcus Dunstan

Stars:
 Josh Stewart, Emma Fitzpatrick and Christopher McDonald

Genres:
 Action | Horror | Thriller 

Country:
USA 

Language:
English


Video: 720x304 @ 2000Kbps 2pass
Audio: English AC3 5.1 @ 384Kbps
Subtitles : None
Sample: Yes, included


Sources: R5 DVDR - Thx


Format                                   : AVI
Format/Info                              : Audio Video Interleave
File size                                : 1.31 GiB
Duration                                 : 1h 18mn
Overall bit rate                         : 2 396 Kbps
Writing library                          : VirtualDub build 32842/release

Video
ID                                       : 0
Format                                   : MPEG-4 Visual
Format profile                           : Advanced Simple@L5
Format settings, BVOP                    : 2
Format settings, QPel                    : No
Format settings, GMC                     : No warppoints
Format settings, Matrix                  : Default (H.263)
Muxing mode                              : Packed bitstream
Codec ID                                 : XVID
Codec ID/Hint                            : XviD
Duration                                 : 1h 18mn
Bit rate                                 : 2 003 Kbps
Width                                    : 720 pixels
Height                                   : 304 pixels
Display aspect ratio                     : 2.35:1
Frame rate                               : 25.000 fps
Color space                              : YUV
Chroma subsampling                       : 4:2:0
Bit depth                                : 8 bits
Scan type                                : Progressive
Compression mode                         : Lossy
Bits/(Pixel*Frame)                       : 0.366
Stream size                              : 1.10 GiB (84%)
Writing library                          : XviD 64

Audio
ID                                       : 1
Format                                   : AC-3
Format/Info                              : Audio Coding 3
Mode extension                           : CM (complete main)
Format settings, Endianness              : Big
Codec ID                                 : 2000
Duration                                 : 1h 18mn
Bit rate mode                            : Constant
Bit rate                                 : 384 Kbps
Channel(s)                               : 6 channels
Channel positions                        : Front: L C R, Side: L R, LFE
Sampling rate                            : 48.0 KHz
Bit depth                                : 16 bits
Compression mode                         : Lossy
Delay relative to video                  : 1s 600ms
Stream size                              : 215 MiB (16%)
Alignment                                : Split accross interleaves
Interleave, duration                     : 40 ms (1.00 video frame)
Interleave, preload duration             : 500 ms



 
http://www.shotpix.com/images/53820685041156856813.png 
http://www.shotpix.com/images/44595599295302169286.png 
http://www.shotpix.com/images/07342369728534419534.png 
http://www.shotpix.com/images/11359095158788010971.png
